<svg xmlns="http://www.w3.org/2000/svg" viewBox="0 0 48 48" width="100%" height="100%">
  <path fill="#0668E1" d="M24 13.8c-4.4 0-8.2 2.5-10.9 6.2-2.3-3.2-5.4-5.2-9-5.2C1.8 14.8 0 16.6 0 19.3c0 7.7 7.7 14.9 14.9 14.9 4.3 0 8.1-2.4 10.7-6 2.4 3.3 5.7 5.4 9.5 5.4 6 0 12.9-6.3 12.9-14.3 0-2.7-1.8-4.5-4.1-4.5-3.6 0-6.8 2-9.2 5.2-2.7-3.7-6.5-6.2-10.7-6.2zm-9.3 15.9c-4.8 0-10.2-5.5-10.2-10.4 0-1.2.7-1.9 1.8-1.9 2.5 0 5 1.7 6.9 4.5l1.5 2.3zm18.6 0c-1.9-2.8-4.4-4.5-6.9-4.5-1.1 0-1.8.7-1.8 1.9 0 4.9 5.4 10.4 10.2 10.4 1.2 0 1.8-.7 1.8-1.9 0-2.3-1.6-4.5-3.3-5.9z"/>
</svg>